<?xml version="1.0" standalone="no"?>
<!DOCTYPE svg PUBLIC "-//W3C//DTD SVG 20010904//EN"
 "http://www.w3.org/TR/2001/REC-SVG-20010904/DTD/svg10.dtd">
<svg version="1.0" xmlns="http://www.w3.org/2000/svg"
 width="225.000000pt" height="225.000000pt" viewBox="0 0 225.000000 225.000000"
 preserveAspectRatio="xMidYMid meet">

<g transform="translate(0.000000,225.000000) scale(0.100000,-0.100000)"
fill="#ffffff" stroke="none">
<path d="M630 2240 c-124 -10 -208 -31 -300 -78 -136 -68 -241 -196 -289 -355
-30 -99 -41 -281 -41 -682 0 -540 15 -665 98 -815 71 -129 213 -236 367 -275
98 -25 278 -35 660 -35 382 0 562 10 660 35 164 42 307 154 377 295 75 150 88
263 88 795 0 382 -10 562 -35 660 -42 164 -154 307 -295 377 -97 49 -168 66
-315 78 -137 11 -833 11 -975 0z m1072 -214 c103 -23 154 -50 218 -115 64 -65
90 -121 112 -238 18 -96 18 -999 0 -1096 -23 -120 -49 -174 -117 -242 -68 -68
-122 -94 -242 -117 -96 -18 -999 -18 -1096 0 -117 22 -173 48 -238 112 -117
115 -129 171 -136 670 -10 703 14 833 174 955 108 82 222 95 828 90 339 -3
444 -7 497 -19z"/>
<path d="M1661 1842 c-40 -21 -71 -73 -71 -117 0 -63 71 -135 133 -135 43 0
94 28 117 65 72 116 -58 252 -179 187z"/>
<path d="M1005 1690 c-108 -23 -220 -86 -296 -166 -58 -61 -93 -117 -127 -203
-23 -59 -26 -80 -26 -196 0 -116 3 -137 26 -196 66 -168 178 -281 346 -347 60
-23 80 -26 197 -26 117 0 137 3 197 26 168 66 280 179 346 347 23 59 26 80 26
196 0 117 -3 137 -26 197 -67 168 -181 282 -347 345 -52 20 -89 26 -171 29
-58 2 -123 -1 -145 -6z m276 -227 c81 -38 144 -100 183 -183 28 -58 31 -75 31
-155 0 -80 -3 -97 -31 -155 -39 -83 -101 -145 -184 -184 -58 -28 -75 -31 -155
-31 -80 0 -97 3 -155 31 -83 39 -145 101 -184 184 -28 58 -31 75 -31 155 0 80
3 97 31 155 91 191 308 271 495 183z"/>
</g>
</svg>
