<?xml version="1.0" standalone="no"?>
<!DOCTYPE svg PUBLIC "-//W3C//DTD SVG 20010904//EN"
 "http://www.w3.org/TR/2001/REC-SVG-20010904/DTD/svg10.dtd">
<svg version="1.0" xmlns="http://www.w3.org/2000/svg"
 width="512.000000pt" height="512.000000pt" viewBox="0 0 512.000000 512.000000"
 preserveAspectRatio="xMidYMid meet">

<g transform="translate(0.000000,512.000000) scale(0.100000,-0.100000)"
fill="#ffffff" stroke="none">
<path d="M585 5069 c-265 -41 -482 -232 -561 -494 -25 -83 -25 -277 0 -360 65
-218 232 -393 445 -469 78 -28 97 -30 211 -30 172 0 276 33 410 133 117 87
233 267 260 405 16 77 16 230 0 297 -18 80 -82 206 -141 277 -88 107 -233 200
-359 230 -68 17 -197 22 -265 11z m245 -186 c144 -40 265 -151 330 -303 35
-82 40 -243 11 -338 -67 -222 -296 -380 -515 -357 -179 19 -320 100 -406 234
-91 143 -101 337 -26 496 107 227 355 337 606 268z"/>
<path d="M3639 3620 c-249 -24 -491 -130 -662 -290 -41 -39 -78 -70 -81 -70
-3 0 -6 33 -6 73 0 86 -18 127 -73 171 l-39 31 -482 0 -482 0 -41 -27 c-80
-53 -73 101 -71 -1730 l3 -1633 22 -31 c13 -17 40 -40 60 -50 35 -18 72 -19
531 -22 323 -2 506 1 532 8 42 11 93 49 113 84 9 16 13 257 17 1021 5 978 6
1001 26 1056 108 295 403 411 686 268 71 -36 155 -116 183 -174 49 -105 48
-85 54 -1151 l6 -1001 28 -36 c57 -75 37 -72 563 -72 l470 0 36 24 c19 13 46
40 59 59 l24 36 3 1150 c3 1194 1 1259 -39 1416 -112 445 -462 779 -907 870
-118 24 -392 34 -533 20z m376 -170 c246 -22 440 -109 615 -277 151 -143 246
-316 297 -538 17 -75 18 -151 18 -1250 l0 -1170 -420 0 -420 0 -5 985 c-6 968
-6 986 -27 1062 -49 175 -145 292 -307 374 -369 189 -786 9 -922 -396 -18 -52
-19 -116 -24 -1040 l-5 -985 -468 -3 -467 -2 0 1580 0 1580 425 0 425 0 1
-272 0 -273 202 206 c228 232 252 252 371 313 196 100 414 133 711 106z"/>
<path d="M250 3527 c-52 -17 -136 -103 -149 -154 -8 -29 -10 -488 -9 -1600 l3
-1558 30 -45 c43 -63 104 -106 170 -120 37 -8 174 -10 422 -8 l368 3 55 31
c62 35 114 96 130 152 6 25 10 543 10 1564 0 1501 0 1528 -20 1581 -23 62 -76
117 -140 146 -43 20 -63 21 -440 20 -260 -1 -407 -5 -430 -12z m827 -181 l28
-24 3 -1523 c2 -1691 8 -1558 -65 -1579 -26 -8 -153 -10 -386 -8 l-349 3 -24
28 -24 28 0 1525 0 1525 25 24 24 25 370 0 370 0 28 -24z"/>
</g>
</svg>
